<svg version="1.1" id="Layer_1" xmlns="http://www.w3.org/2000/svg" xmlns:xlink="http://www.w3.org/1999/xlink" x="0px" y="0px"
	 width="100%" viewBox="0 0 1024 1024" enable-background="new 0 0 1024 1024" xml:space="preserve">
<path fill="#000000" opacity="1.000000" stroke="none" 
	d="
M527.958252,576.125183 
	C504.333221,582.080933 481.118591,588.082642 457.298981,590.982178 
	C436.247467,593.544861 415.427948,592.832764 395.406311,584.556946 
	C366.136932,572.458679 350.315125,549.993958 344.682343,519.489624 
	C341.738739,503.548553 343.381378,487.662262 344.953156,471.762421 
	C345.048981,470.793274 345.532227,469.812561 344.332001,468.321472 
	C337.904938,470.096741 330.955017,469.410858 326.232788,477.325134 
	C316.094269,494.317047 305.753448,511.327332 292.265717,526.014099 
	C277.232910,542.383301 261.285339,557.716248 241.287827,568.093506 
	C236.693176,570.477844 231.892227,572.428467 226.773239,573.303284 
	C208.225571,576.473145 193.647842,564.310425 192.631165,545.459534 
	C191.542709,525.277344 197.554092,506.870392 206.710876,489.489014 
	C224.975220,454.819794 249.410904,425.169342 281.071136,401.794159 
	C291.742523,393.915283 303.307434,387.724152 316.560242,385.277313 
	C320.866364,384.482300 325.191864,384.387848 329.463287,385.344177 
	C343.622314,388.514252 350.791656,398.714050 350.123688,414.608307 
	C349.662750,425.576782 346.226929,435.827484 342.545837,446.022064 
	C341.595917,448.652802 340.128174,451.142609 340.118347,454.060608 
	C345.943298,455.019135 348.724640,453.212585 350.397583,446.892456 
	C357.276306,420.905212 368.113770,396.576355 382.486053,373.995789 
	C419.011322,316.610321 465.751587,269.724884 526.316345,237.726852 
	C545.888245,227.386459 566.703186,220.528137 589.314880,220.728470 
	C612.110046,220.930450 626.373535,239.233521 620.317322,261.183929 
	C617.257141,272.275452 611.299194,281.894379 603.403015,290.266998 
	C600.859924,292.963531 597.772522,294.956238 594.388611,296.448303 
	C584.586182,300.770508 576.385803,295.004242 576.993347,284.242920 
	C577.743896,270.948914 588.342346,259.115936 601.437561,256.951447 
	C606.893188,256.049683 608.785339,252.881622 607.071655,247.518066 
	C605.406189,242.305664 601.203369,239.342087 594.674866,239.395844 
	C584.056702,239.483261 574.516418,243.519669 565.341003,248.337357 
	C540.221558,261.526794 519.601379,280.432007 500.265289,300.762299 
	C480.719421,321.313141 463.000854,343.406372 447.513641,367.201599 
	C426.030365,400.209534 408.320343,434.955383 400.044250,473.833099 
	C395.750092,494.005371 394.876648,514.131897 403.313507,533.623047 
	C412.256226,554.282776 428.863983,564.733948 450.363647,568.778503 
	C476.049591,573.610474 501.028748,568.607361 525.995789,563.636475 
	C562.211243,556.426147 597.590088,545.590393 633.845276,538.526917 
	C634.622498,538.375549 635.333313,537.883667 636.003174,537.582947 
	C636.305481,535.531616 634.802063,534.677429 633.747803,533.804382 
	C618.173462,520.907288 612.634399,503.582245 611.970215,484.205902 
	C611.837402,480.333221 610.593506,478.402710 606.876465,476.877045 
	C594.309021,471.718811 582.956482,464.460724 572.648499,455.577850 
	C567.009216,450.718231 566.985840,450.790100 561.728882,456.277313 
	C547.368530,471.266388 531.965515,484.993225 513.177795,494.252991 
	C501.065979,500.222534 488.380707,503.942871 474.589539,501.386658 
	C459.310913,498.554718 449.282593,488.744202 446.536682,473.401794 
	C444.516815,462.115967 445.320099,451.137390 451.481354,441.072998 
	C458.888214,428.973907 473.308289,423.756042 485.617340,428.630371 
	C493.848389,431.889862 498.234924,438.441681 498.073822,447.235718 
	C497.920074,455.629456 493.730103,461.325989 485.317078,464.403778 
	C480.631805,466.117767 475.819916,467.507507 471.207336,469.391663 
	C467.234772,471.014435 463.441376,473.541077 463.597961,478.335114 
	C463.765503,483.464478 467.225922,486.753265 471.879120,488.637177 
	C481.718445,492.620758 491.466003,491.431396 501.076233,487.814606 
	C516.678406,481.942780 529.266113,471.521027 541.405823,460.541473 
	C546.587036,455.855408 551.173340,450.516846 556.264099,445.723480 
	C559.100098,443.053223 559.267517,440.911774 557.057373,437.638733 
	C553.150024,431.852478 549.411377,425.912170 546.564087,419.487366 
	C541.272034,407.546112 544.175537,397.247986 555.020508,389.929901 
	C568.331726,380.947662 582.861145,379.458099 598.048828,383.602142 
	C607.104614,386.072998 604.767761,387.696014 611.632385,379.567871 
	C638.664795,347.559875 667.606873,317.415009 699.305664,289.999634 
	C711.910461,279.098053 724.906311,268.596863 740.657837,262.343658 
	C743.267761,261.307587 746.030396,260.545593 748.791809,260.025391 
	C754.039673,259.036774 756.351624,261.550720 754.339783,266.447388 
	C751.686462,272.905792 748.651306,279.226410 745.459595,285.441589 
	C715.918457,342.967560 688.943481,401.662170 664.987305,461.735107 
	C663.781433,464.758881 662.231201,467.706207 661.760071,471.688538 
	C669.691162,470.437714 675.930481,466.831238 681.780151,462.440125 
	C688.207336,457.615479 693.709961,451.776154 699.027832,445.810303 
	C701.640808,442.878815 703.595276,442.016388 706.738037,445.110199 
	C709.505371,447.834473 710.820496,449.692902 707.339172,453.112976 
	C698.178589,462.112213 689.282959,471.358826 677.720642,477.400696 
	C672.383850,480.189423 666.848389,482.443512 660.858582,483.360901 
	C657.765320,483.834656 656.113342,485.223816 656.322327,488.646790 
	C657.761780,512.226868 670.264709,533.833313 694.436768,541.396240 
	C708.532288,545.806396 722.705994,545.485107 736.819824,542.007935 
	C766.857178,534.607788 796.633179,526.071960 826.991760,520.077637 
	C849.811279,515.571838 872.630493,509.612823 895.899963,509.238434 
	C936.125671,508.591278 972.638000,520.603821 1004.133606,546.340210 
	C1008.193970,549.658081 1012.241882,552.983276 1015.897156,557.164307 
	C1013.549622,558.159973 1012.546204,556.696899 1011.347656,556.025818 
	C987.855957,542.872253 962.794006,540.643738 936.878540,545.834717 
	C928.930725,547.426697 922.384583,552.515564 916.112732,557.484741 
	C912.657593,560.222229 910.356323,560.020325 907.300781,556.867126 
	C886.405884,535.304199 860.052124,531.115417 831.782959,533.910583 
	C805.762207,536.483398 781.270508,545.467529 756.348877,552.619446 
	C739.374451,557.490601 722.225708,561.530823 704.531982,562.781677 
	C695.968567,563.386963 687.338562,562.910095 679.347656,560.122681 
	C670.075500,556.888367 660.797485,556.366760 651.359070,557.420166 
	C640.409241,558.642395 629.416504,558.118530 618.446350,559.037048 
	C596.486877,560.875610 575.004028,565.170959 553.583435,569.982056 
	C545.148560,571.876587 536.764282,573.996521 527.958252,576.125183 
M718.416382,297.980682 
	C722.293640,292.076721 726.170898,286.172760 730.048157,280.268768 
	C724.403198,282.998505 719.371582,286.215698 714.654236,289.841644 
	C677.906982,318.086884 648.886536,353.813080 619.045471,388.745667 
	C616.671814,391.524292 617.501465,393.394562 620.076172,395.319489 
	C626.660522,400.242279 632.176758,406.230377 637.195190,412.712189 
	C638.582031,414.503418 639.207397,416.955780 642.152100,418.256927 
	C666.081970,377.515472 691.865234,337.931427 718.416382,297.980682 
M311.235931,476.768585 
	C312.453308,474.637238 314.182220,472.734192 314.352600,469.444397 
	C301.554993,464.528778 288.963867,458.871521 281.664703,446.508942 
	C278.911407,447.067291 278.083649,448.784149 277.061157,450.264954 
	C272.994629,456.154236 268.841614,461.987305 264.911591,467.966705 
	C255.082535,482.921234 246.502991,498.501282 242.791351,516.230103 
	C241.463974,522.570312 241.331024,529.266479 247.162064,533.623047 
	C252.680847,537.746338 258.271881,535.020813 263.477905,532.044495 
	C267.251984,529.886719 270.649994,527.215454 273.894897,524.327576 
	C289.009033,510.876526 300.094055,494.260773 311.235931,476.768585 
M581.589233,433.068848 
	C579.883362,435.107330 578.272217,437.235901 576.444580,439.158539 
	C574.672668,441.022491 574.843384,442.422333 576.675049,444.173859 
	C586.626099,453.689392 597.713867,461.436829 610.487366,466.740173 
	C613.990784,468.194733 615.892212,467.357117 617.588806,463.994965 
	C622.456177,454.349640 627.629578,444.859070 632.631836,435.281158 
	C633.349243,433.907440 634.776794,432.621704 633.594299,430.441315 
	C627.347229,429.734406 620.950623,428.814209 614.521057,428.342224 
	C608.889771,427.928864 603.803772,426.945679 600.188782,421.936157 
	C598.926270,420.186615 597.462952,418.108185 594.521790,417.786804 
	C590.414001,422.652740 586.240234,427.596863 581.589233,433.068848 
M315.794525,455.619629 
	C321.787720,457.606384 322.791168,457.266663 325.461700,451.607574 
	C327.515778,447.254913 329.436615,442.831177 331.217468,438.359711 
	C334.338501,430.523163 335.713837,422.381866 334.646393,413.960785 
	C333.580414,405.551300 327.115540,401.638428 319.188171,404.442596 
	C310.549652,407.498322 303.853241,412.991730 299.143433,420.796783 
	C293.313507,430.458069 294.183716,440.088104 301.551575,447.243256 
	C305.386597,450.967529 309.738861,454.012360 315.794525,455.619629 
M575.647461,423.153961 
	C579.287354,418.720947 582.927246,414.287933 586.885986,409.466614 
	C580.475586,405.352173 574.092712,403.816498 567.450134,403.409973 
	C561.620667,403.053223 558.771667,405.661743 558.387939,411.501007 
	C557.855408,419.605927 562.851685,425.292084 566.824219,431.657745 
	C570.819092,429.533691 572.615967,426.204956 575.647461,423.153961 
z"/>
<path fill="#000000" opacity="1.000000" stroke="none" 
	d="
M273.324036,330.359131 
	C251.641266,345.294617 232.914825,362.983002 215.601105,382.237701 
	C181.021378,420.694031 152.139069,462.825134 133.507050,511.367371 
	C124.756187,534.166077 118.218132,557.592163 120.307610,582.430786 
	C122.656395,610.351868 137.071030,633.815735 169.285156,640.916870 
	C186.972351,644.815735 204.665070,643.817505 222.366776,641.329468 
	C250.248535,637.410522 277.387146,630.066101 304.664703,623.351990 
	C332.920410,616.397156 361.195709,609.415222 390.014282,605.205566 
	C412.575684,601.909851 435.228546,599.811829 458.152679,601.556946 
	C496.637909,604.486511 529.402161,620.647522 559.368347,643.806274 
	C569.396484,651.556213 579.382202,659.325256 587.771484,668.906372 
	C588.793335,670.073425 590.489075,670.947205 590.204468,673.014526 
	C588.200134,673.922180 587.105957,672.260193 585.821228,671.436707 
	C560.035095,654.907043 531.681763,646.936829 501.212585,646.373474 
	C480.390106,645.988464 462.700043,652.938049 449.596558,669.794678 
	C449.210846,670.290894 448.601257,670.613037 448.253265,670.890808 
	C446.550903,670.973022 446.008118,669.861084 445.394745,668.895813 
	C431.788300,647.483643 411.095093,637.617676 387.086884,633.359314 
	C364.158142,629.292480 341.340057,631.569519 318.545105,634.939819 
	C288.533295,639.377075 259.347534,647.514404 229.891006,654.448853 
	C205.268448,660.245361 180.599106,666.131958 155.066757,665.225891 
	C125.294044,664.169312 99.595032,654.083862 81.891167,628.844421 
	C67.845459,608.820129 64.533676,585.960815 66.257294,562.116699 
	C70.874329,498.245514 100.566292,445.714417 141.139023,398.362213 
	C167.187576,367.961121 196.850128,341.519989 231.092499,320.480865 
	C249.374817,309.247894 268.712463,300.504730 289.747681,295.814850 
	C298.918243,293.770264 308.243866,293.104675 317.551697,293.977325 
	C337.197754,295.819244 349.463715,314.948547 343.448792,334.652924 
	C340.058044,345.760742 334.195404,355.649292 325.835297,363.905396 
	C324.040344,365.678009 322.025116,367.107635 319.826355,368.336853 
	C314.953064,371.061279 309.926270,372.827454 304.778687,369.377747 
	C299.849976,366.074646 299.457764,360.819672 299.817657,355.521332 
	C300.586884,344.196930 310.683441,332.817413 321.818634,330.594635 
	C325.894287,329.781097 330.352814,329.661438 330.028168,323.505096 
	C329.737457,317.993896 326.856659,314.266571 321.032684,313.224823 
	C311.737091,311.562164 303.300049,314.805542 294.997223,318.289764 
	C287.452576,321.455780 280.474762,325.708282 273.324036,330.359131 
z"/>
</svg>